<svg width="279" height="40" viewBox="0 0 279 40" fill="none" xmlns="http://www.w3.org/2000/svg">
<path d="M0 39V5.39998H7.344L19.536 25.224L14.352 25.176L26.688 5.39998H33.792V39H25.824V28.824C25.824 25.88 25.888 23.24 26.016 20.904C26.176 18.536 26.432 16.216 26.784 13.944L27.696 16.44L18.432 30.792H15.168L6.096 16.536L7.008 13.944C7.392 16.088 7.648 18.312 7.776 20.616C7.936 22.888 8.016 25.624 8.016 28.824V39H0Z" fill="#191610"/>
<path d="M54.9566 39V23.352C54.9566 22.04 54.5886 21.08 53.8526 20.472C53.1486 19.832 52.1566 19.512 50.8766 19.512C49.6286 19.512 48.5086 19.752 47.5166 20.232C46.5566 20.68 45.6286 21.432 44.7326 22.488L40.1246 18.024C41.6606 16.456 43.4206 15.224 45.4046 14.328C47.3886 13.432 49.5486 12.984 51.8846 12.984C54.0286 12.984 55.8846 13.304 57.4526 13.944C59.0206 14.584 60.2366 15.56 61.1006 16.872C61.9646 18.184 62.3966 19.848 62.3966 21.864V39H54.9566ZM48.3326 39.48C46.7326 39.48 45.2766 39.16 43.9646 38.52C42.6846 37.88 41.6606 37 40.8926 35.88C40.1566 34.728 39.7886 33.384 39.7886 31.848C39.7886 30.536 40.0286 29.384 40.5086 28.392C40.9886 27.4 41.6926 26.584 42.6206 25.944C43.5806 25.272 44.7646 24.776 46.1726 24.456C47.6126 24.104 49.2766 23.928 51.1646 23.928H58.8926L58.4606 28.776H51.3566C50.6846 28.776 50.0926 28.84 49.5806 28.968C49.0686 29.064 48.6366 29.24 48.2846 29.496C47.9326 29.72 47.6606 29.992 47.4686 30.312C47.3086 30.632 47.2286 31.016 47.2286 31.464C47.2286 31.944 47.3566 32.36 47.6126 32.712C47.8686 33.064 48.2046 33.336 48.6206 33.528C49.0686 33.72 49.5806 33.816 50.1566 33.816C50.9886 33.816 51.7726 33.688 52.5086 33.432C53.2766 33.144 53.9486 32.744 54.5246 32.232C55.1326 31.72 55.6126 31.128 55.9646 30.456L57.3086 33.912C56.6366 35 55.8206 35.96 54.8606 36.792C53.9326 37.624 52.9086 38.28 51.7886 38.76C50.7006 39.24 49.5486 39.48 48.3326 39.48Z" fill="#191610"/>
<path d="M77.1521 39.48C74.7201 39.48 72.5441 39.096 70.6241 38.328C68.7041 37.528 67.1681 36.44 66.0161 35.064L70.7201 31.032C71.7121 32.024 72.8321 32.76 74.0801 33.24C75.3281 33.688 76.5121 33.912 77.6321 33.912C78.0481 33.912 78.4161 33.864 78.7361 33.768C79.0561 33.672 79.3281 33.544 79.5521 33.384C79.8081 33.192 80.0001 32.984 80.1281 32.76C80.2561 32.504 80.3201 32.216 80.3201 31.896C80.3201 31.256 80.0481 30.776 79.5041 30.456C79.2481 30.296 78.7841 30.104 78.1121 29.88C77.4401 29.624 76.5761 29.368 75.5201 29.112C74.0161 28.728 72.7041 28.264 71.5841 27.72C70.4961 27.176 69.6001 26.552 68.8961 25.848C68.2561 25.208 67.7601 24.472 67.4081 23.64C67.0881 22.808 66.9281 21.88 66.9281 20.856C66.9281 19.288 67.3921 17.912 68.3201 16.728C69.2801 15.544 70.5281 14.632 72.0641 13.992C73.6001 13.32 75.2641 12.984 77.0561 12.984C78.4641 12.984 79.7921 13.144 81.0401 13.464C82.3201 13.784 83.5041 14.232 84.5921 14.808C85.7121 15.384 86.7041 16.072 87.5681 16.872L83.4881 21.432C82.9441 20.888 82.3041 20.408 81.5681 19.992C80.8321 19.544 80.0961 19.192 79.3601 18.936C78.6241 18.648 77.9361 18.504 77.2961 18.504C76.8161 18.504 76.3841 18.552 76.0001 18.648C75.6481 18.712 75.3441 18.84 75.0881 19.032C74.8641 19.192 74.6881 19.4 74.5601 19.656C74.4321 19.88 74.3681 20.136 74.3681 20.424C74.3681 20.776 74.4481 21.096 74.6081 21.384C74.8001 21.64 75.0561 21.88 75.3761 22.104C75.6641 22.264 76.1601 22.472 76.8641 22.728C77.6001 22.984 78.5601 23.272 79.7441 23.592C81.2481 24.008 82.5281 24.488 83.5841 25.032C84.6721 25.544 85.5361 26.152 86.1761 26.856C86.7201 27.4 87.1041 28.04 87.3281 28.776C87.5841 29.48 87.7121 30.248 87.7121 31.08C87.7121 32.712 87.2481 34.168 86.3201 35.448C85.4241 36.696 84.1761 37.688 82.5761 38.424C81.0081 39.128 79.2001 39.48 77.1521 39.48Z" fill="#191610"/>
<path d="M94.4378 39V7.07998H102.166V39H94.4378ZM89.9258 20.28V13.512H107.062V20.28H89.9258Z" fill="#191610"/>
<path d="M123.407 39.48C120.591 39.48 118.127 38.92 116.015 37.8C113.935 36.68 112.319 35.144 111.167 33.192C110.047 31.208 109.487 28.952 109.487 26.424C109.487 24.44 109.807 22.632 110.447 21C111.087 19.336 111.983 17.912 113.135 16.728C114.319 15.544 115.695 14.632 117.263 13.992C118.863 13.32 120.607 12.984 122.495 12.984C124.287 12.984 125.919 13.304 127.391 13.944C128.863 14.584 130.143 15.48 131.231 16.632C132.319 17.784 133.151 19.144 133.727 20.712C134.303 22.28 134.575 23.992 134.543 25.848L134.495 27.96H114.239L113.087 23.592H128.207L127.391 24.456V23.496C127.327 22.696 127.071 22.008 126.623 21.432C126.207 20.824 125.647 20.344 124.943 19.992C124.271 19.64 123.503 19.464 122.639 19.464C121.359 19.464 120.271 19.72 119.375 20.232C118.511 20.712 117.855 21.416 117.407 22.344C116.959 23.272 116.735 24.424 116.735 25.8C116.735 27.176 117.023 28.392 117.599 29.448C118.207 30.504 119.071 31.32 120.191 31.896C121.343 32.472 122.703 32.76 124.271 32.76C125.327 32.76 126.287 32.6 127.151 32.28C128.015 31.96 128.943 31.416 129.935 30.648L133.535 35.736C132.543 36.568 131.487 37.272 130.367 37.848C129.247 38.392 128.095 38.792 126.911 39.048C125.759 39.336 124.591 39.48 123.407 39.48Z" fill="#191610"/>
<path d="M139.435 39V13.512H146.779L147.115 21.816L145.675 20.184C146.091 18.84 146.731 17.624 147.595 16.536C148.459 15.448 149.483 14.584 150.667 13.944C151.883 13.304 153.147 12.984 154.459 12.984C155.035 12.984 155.563 13.032 156.043 13.128C156.555 13.192 157.003 13.304 157.387 13.464L155.323 21.96C154.971 21.768 154.491 21.608 153.883 21.48C153.307 21.32 152.699 21.24 152.059 21.24C151.355 21.24 150.699 21.368 150.091 21.624C149.515 21.848 149.003 22.184 148.555 22.632C148.139 23.08 147.803 23.608 147.547 24.216C147.323 24.824 147.211 25.512 147.211 26.28V39H139.435Z" fill="#191610"/>
<path d="M161.278 39V13.512H168.622L168.862 18.12L167.806 18.216C168.158 17.384 168.638 16.648 169.246 16.008C169.854 15.368 170.526 14.84 171.262 14.424C172.03 13.976 172.83 13.64 173.662 13.416C174.494 13.16 175.326 13.032 176.158 13.032C177.438 13.032 178.574 13.224 179.566 13.608C180.59 13.992 181.47 14.616 182.206 15.48C182.974 16.344 183.582 17.496 184.03 18.936L182.878 18.744L183.214 18.072C183.662 17.304 184.206 16.616 184.846 16.008C185.518 15.368 186.254 14.824 187.054 14.376C187.854 13.928 188.67 13.592 189.502 13.368C190.366 13.144 191.198 13.032 191.998 13.032C194.014 13.032 195.694 13.432 197.038 14.232C198.382 15.032 199.39 16.216 200.062 17.784C200.734 19.32 201.07 21.224 201.07 23.496V39H193.342V24.072C193.342 22.568 193.022 21.448 192.382 20.712C191.774 19.944 190.846 19.56 189.598 19.56C188.926 19.56 188.302 19.672 187.726 19.896C187.182 20.088 186.702 20.392 186.286 20.808C185.902 21.192 185.598 21.64 185.374 22.152C185.15 22.664 185.038 23.24 185.038 23.88V39H177.31V24.024C177.31 22.584 176.974 21.48 176.302 20.712C175.662 19.944 174.75 19.56 173.566 19.56C172.926 19.56 172.318 19.672 171.742 19.896C171.198 20.088 170.718 20.392 170.302 20.808C169.918 21.192 169.614 21.64 169.39 22.152C169.166 22.664 169.054 23.24 169.054 23.88V39H161.278Z" fill="#191610"/>
<path d="M207.93 39V13.512H215.658V39H207.93Z" fill="#191610"/>
<path d="M222.919 39V13.512H230.264L230.551 18.696L228.967 19.272C229.319 18.12 229.944 17.08 230.84 16.152C231.768 15.192 232.872 14.424 234.152 13.848C235.432 13.272 236.776 12.984 238.184 12.984C240.104 12.984 241.719 13.384 243.031 14.184C244.343 14.952 245.32 16.12 245.96 17.688C246.632 19.224 246.967 21.128 246.967 23.4V39H239.24V23.976C239.24 22.952 239.095 22.104 238.807 21.432C238.519 20.76 238.088 20.264 237.512 19.944C236.936 19.624 236.216 19.48 235.352 19.512C234.68 19.512 234.056 19.624 233.48 19.848C232.904 20.04 232.391 20.344 231.943 20.76C231.527 21.144 231.208 21.592 230.984 22.104C230.76 22.616 230.648 23.192 230.648 23.832V39H226.76C225.928 39 225.175 39 224.503 39C223.863 39 223.335 39 222.919 39Z" fill="#191610"/>
<path d="M263.131 39.48C260.955 39.48 258.987 38.92 257.227 37.8C255.499 36.68 254.139 35.128 253.147 33.144C252.155 31.128 251.659 28.84 251.659 26.28C251.659 23.72 252.155 21.448 253.147 19.464C254.139 17.448 255.499 15.864 257.227 14.712C258.987 13.56 260.971 12.984 263.179 12.984C264.331 12.984 265.435 13.16 266.491 13.512C267.579 13.864 268.539 14.344 269.371 14.952C270.235 15.56 270.939 16.248 271.483 17.016C272.027 17.784 272.363 18.6 272.491 19.464L270.619 19.896V3.47998H278.347V39H271.147L270.715 33.24L272.251 33.528C272.187 34.296 271.899 35.048 271.387 35.784C270.875 36.488 270.187 37.128 269.323 37.704C268.491 38.248 267.547 38.68 266.491 39C265.435 39.32 264.315 39.48 263.131 39.48ZM265.051 33.096C266.235 33.096 267.243 32.824 268.075 32.28C268.939 31.704 269.611 30.904 270.091 29.88C270.571 28.856 270.811 27.656 270.811 26.28C270.811 24.872 270.571 23.656 270.091 22.632C269.611 21.608 268.939 20.824 268.075 20.28C267.243 19.704 266.235 19.416 265.051 19.416C263.899 19.416 262.891 19.704 262.027 20.28C261.195 20.824 260.539 21.608 260.059 22.632C259.579 23.656 259.339 24.872 259.339 26.28C259.339 27.656 259.579 28.856 260.059 29.88C260.539 30.904 261.195 31.704 262.027 32.28C262.891 32.824 263.899 33.096 265.051 33.096Z" fill="#191610"/>
<circle cx="211.824" cy="4" r="4" fill="#FFBA27"/>
<circle cx="223.824" cy="4" r="4" fill="#6CB472"/>
<circle cx="235.824" cy="4" r="4" fill="#5586F5"/>
<circle cx="247.824" cy="4" r="4" fill="#FE8E4D"/>
</svg>
