<svg width="19" height="14" viewBox="0 0 19 14" fill="none" xmlns="http://www.w3.org/2000/svg">
<path d="M18 11L16 13" stroke="#191610" stroke-width="2" stroke-linecap="round" stroke-linejoin="round"/>
<path d="M18 11L16 9" stroke="#191610" stroke-width="2" stroke-linecap="round" stroke-linejoin="round"/>
<path d="M18 3L16 5" stroke="#191610" stroke-width="2" stroke-linecap="round" stroke-linejoin="round"/>
<path d="M18 3L16 1" stroke="#191610" stroke-width="2" stroke-linecap="round" stroke-linejoin="round"/>
<path d="M9 7C8.33333 5.66667 7 3 3 3C1.23196 3 1.66667 3 1 3" stroke="#191610" stroke-width="2" stroke-linecap="round" stroke-linejoin="round"/>
<path d="M9 7C8.33333 8.33333 7 11 3 11C1.23196 11 1.66667 11 1 11" stroke="#191610" stroke-width="2" stroke-linecap="round" stroke-linejoin="round"/>
<path d="M9 7C9.66667 8.33333 11 11 15 11C16.768 11 16.3333 11 17 11" stroke="#191610" stroke-width="2" stroke-linecap="round" stroke-linejoin="round"/>
<path d="M9 7C9.66667 5.66667 11 3 15 3C16.768 3 16.3333 3 17 3" stroke="#191610" stroke-width="2" stroke-linecap="round" stroke-linejoin="round"/>
</svg>
